<?xml version="1.0" standalone="no"?>
<!DOCTYPE svg PUBLIC "-//W3C//DTD SVG 20010904//EN"
 "http://www.w3.org/TR/2001/REC-SVG-20010904/DTD/svg10.dtd">
<svg version="1.0" xmlns="http://www.w3.org/2000/svg"
 width="260.000000pt" height="260.000000pt" viewBox="0 0 260.000000 260.000000"
 preserveAspectRatio="xMidYMid meet">
<metadata>
Created by potrace 1.11, written by Peter Selinger 2001-2013
</metadata>
<g transform="translate(0.000000,260.000000) scale(0.100000,-0.100000)"
fill="#000000" stroke="none">
<path d="M3 1480 l-1 -640 317 0 c354 1 412 8 511 61 145 77 220 238 185 399
-15 72 -69 144 -143 191 l-43 27 36 22 c52 32 99 105 113 175 22 111 -10 227
-83 294 -106 97 -160 108 -568 109 l-324 2 0 -640z m622 411 c54 -22 87 -66
88 -116 1 -44 -14 -93 -36 -113 -40 -38 -76 -45 -243 -47 l-160 -1 -1 140 c0
78 1 143 3 147 6 11 319 2 349 -10z m-15 -502 c69 -15 116 -61 125 -123 10
-63 -1 -109 -32 -147 -46 -54 -79 -62 -264 -64 l-165 -2 0 173 -1 174 143 0
c79 0 166 -5 194 -11z"/>
<path d="M1250 1480 l0 -641 128 3 127 3 -1 345 c0 190 -4 435 -7 544 -6 186
-5 226 6 166 7 -35 130 -520 168 -660 17 -63 48 -178 69 -255 l37 -140 119 -3
119 -2 22 72 c129 419 261 887 278 981 13 67 17 32 15 -110 -1 -76 -3 -318 -4
-538 l-1 -400 133 -3 132 -3 1 28 c1 35 1 1235 0 1245 -1 4 -90 7 -199 7
l-198 0 -77 -242 c-83 -263 -181 -599 -192 -661 -7 -34 -14 -14 -65 190 -58
228 -114 433 -167 614 l-28 95 -208 2 -207 3 0 -640z"/>
<path d="M0 345 l0 -115 1300 0 1300 0 0 115 0 115 -1300 0 -1300 0 0 -115z"/>
</g>
</svg>
