<?xml version="1.0" encoding="UTF-8"?>
<svg width="601px" height="197px" viewBox="0 0 601 197" version="1.1" xmlns="http://www.w3.org/2000/svg" xmlns:xlink="http://www.w3.org/1999/xlink">
    <path d="M154.163974,192.968947 L154.163974,121.166548 C154.163974,89.2250399 154.691933,54.379758 155.483871,34.317323 L154.163974,34.317323 C145.980613,68.8986255 123.806342,135.685416 105.063804,192.968947 L75.4981107,192.968947 C61.5072021,144.132757 38.5409936,68.3706667 30.3576319,33.7893642 L29.3017143,33.7893642 C30.8855907,55.1716963 31.677529,93.7126898 31.677529,125.126239 L31.677529,192.968947 L0,192.968947 L0,10.2951969 L50.9480257,10.2951969 C67.5787284,61.2432227 86.8492252,125.654198 92.3927928,151.52418 L92.9207516,151.52418 C97.1444221,129.613889 120.638589,60.187305 138.06123,10.2951969 L187.1614,10.2951969 L187.1614,192.968947 L154.163974,192.968947 Z M315.719372,0 L348.452819,0 L348.452819,155.219892 C348.452819,167.890903 348.452819,180.297936 348.716798,192.968947 L317.039269,192.968947 C316.51131,189.009256 315.719372,180.825894 315.719372,177.130183 C309.119887,189.009256 296.712855,196.1367 275.594502,196.1367 C241.277179,196.1367 219.366888,168.418862 219.366888,126.446136 C219.366888,84.4734106 242.597076,54.1157786 280.87409,54.1157786 C301.728463,54.1157786 312.28764,62.0351609 315.719372,68.6346461 L315.719372,0 Z M253.156252,125.390219 C253.156252,153.899995 265.299305,169.47478 284.833781,169.47478 C312.551619,169.47478 316.77529,147.30051 316.77529,124.334301 C316.77529,98.7282986 312.551619,80.7776988 285.889699,80.7776988 C264.771346,80.7776988 253.156252,97.4084016 253.156252,125.390219 Z M383.826059,192.968947 L383.826059,93.9766692 C383.826059,78.6658636 383.826059,67.314749 383.56208,57.2835315 L415.767568,57.2835315 C416.295526,60.4512844 416.559506,73.122296 416.559506,82.3615753 C422.895012,65.994852 437.941838,54.379758 460.908046,54.1157786 L460.908046,85.7933076 C433.454188,85.5293282 416.559506,95.2965663 416.559506,131.461745 L416.559506,192.968947 L383.826059,192.968947 Z M600.289174,131.989704 L508.688319,131.989704 C508.688319,152.316118 518.983516,170.002739 539.309931,170.002739 C556.732571,170.002739 562.276139,162.083357 565.971851,153.372036 L598.969277,153.372036 C593.953668,170.266718 579.170821,196.1367 538.254013,196.1367 C494.433431,196.1367 475.690893,162.347336 475.690893,126.974095 C475.690893,85.0013694 497.073225,54.1157786 539.837889,54.1157786 C585.506327,54.1157786 600.817133,88.1691223 600.817133,120.37461 C600.817133,124.86226 600.817133,128.030013 600.289174,131.989704 Z M509.480257,111.135331 L567.819707,111.135331 C567.555727,92.9207516 559.636345,78.1379048 539.57391,78.1379048 C519.511475,78.1379048 511.328113,91.864834 509.480257,111.135331 Z" fill="#FFFFFF"></path>
</svg>