<?xml version="1.0" encoding="UTF-8"?>
<svg width="367px" height="193px" viewBox="0 0 367 193" version="1.1" xmlns="http://www.w3.org/2000/svg" xmlns:xlink="http://www.w3.org/1999/xlink">
    <path d="M1.42108547e-14,192.968947 L1.42108547e-14,10.2951969 L76.5540283,10.2951969 C118.790734,10.2951969 135.949395,32.4694672 135.949395,56.7555727 C135.949395,77.609946 124.598281,91.0728958 111.66329,96.3524839 C124.070322,100.840134 141.492963,113.775125 141.492963,138.589189 C141.492963,171.058656 116.15094,192.968947 78.929843,192.968947 L1.42108547e-14,192.968947 Z M33.7893642,83.6814723 L72.0663784,83.6814723 C93.4487104,83.6814723 101.896051,74.7061725 101.896051,60.187305 C101.896051,45.6684376 91.3368752,37.2210965 73.9142342,37.2210965 L33.7893642,37.2210965 L33.7893642,83.6814723 Z M33.7893642,110.607372 L33.7893642,166.043048 L72.5943372,166.043048 C94.5046281,166.043048 106.383701,156.539789 106.383701,137.797251 C106.383701,121.430528 95.5605457,110.607372 70.7464813,110.607372 L33.7893642,110.607372 Z M203.792103,192.968947 L171.058656,192.968947 L171.058656,-2.84217094e-14 L203.792103,-2.84217094e-14 L203.792103,192.968947 Z M272.426749,-2.84217094e-14 L272.426749,116.942878 C282.985925,103.479928 304.896216,78.929843 323.638754,57.2835315 L361.651789,57.2835315 L313.079578,109.023496 L366.403418,192.968947 L328.918342,192.968947 L290.905308,130.141848 L272.426749,147.828468 L272.426749,192.968947 L239.693302,192.968947 L239.693302,-2.84217094e-14 L272.426749,-2.84217094e-14 Z" fill="#FFFFFF"></path>
</svg>